<svg width="40" height="41" viewBox="0 0 40 41" fill="none" xmlns="http://www.w3.org/2000/svg">
<path d="M20.2736 0.77356C9.39686 0.77356 0.547165 9.62325 0.547165 20.5C0.547165 31.3767 9.39686 40.2264 20.2736 40.2264C31.1503 40.2264 40 31.3767 40 20.5C40 9.62325 31.1503 0.77356 20.2736 0.77356ZM31.2986 15.3088L18.6915 27.817C17.9499 28.5586 16.7634 28.6081 15.9723 27.8665L9.29798 21.7854C8.50695 21.0438 8.45751 19.8078 9.14966 19.0168C9.89126 18.2258 11.1272 18.1763 11.9183 18.9179L17.2083 23.763L28.4806 12.4908C29.2716 11.6997 30.5076 11.6997 31.2986 12.4908C32.0897 13.2818 32.0897 14.5178 31.2986 15.3088Z" fill="#F9A63E"/>
</svg>
